<svg width="32" height="32" viewBox="0 0 32 32" fill="none" xmlns="http://www.w3.org/2000/svg">
<path fill-rule="evenodd" clip-rule="evenodd" d="M6.5 5.5C3.2431 8.42953 1.83888 12.7196 1.83888 16.4999C1.83888 24.0871 8.12262 29.9999 16 29.9999C20.0141 29.9999 23.6224 28.8738 26.1095 26.8218C28.5772 24.7857 30.3618 21.7919 30.3618 18C30.3618 10.3867 26.5 6 17.2 4.59051C16.5923 4.49839 16.6473 3.77452 17.3427 3.85442C26.8262 4.94396 32 9.26568 32 18C32 22.3819 30.218 25.916 27.2844 28.3365C24.3701 30.741 20.3806 31.9999 16 31.9999C7.08792 31.9999 0 25.2603 0 16.4999C0 12.1064 2.18814 7.31826 5.83127 4.04132C9.50616 0.735825 14.7054 -1.067 20.6748 0.638495C21.6302 0.911463 21.7357 1.85304 20.5 1.5C12.5 0 8.93141 3.31299 6.5 5.5Z" fill="#F2B661"/>
</svg>
