<svg width="1289" height="4" viewBox="0 0 1289 4" fill="none" xmlns="http://www.w3.org/2000/svg">
<path d="M1288.5 2C1287.31 2.66667 1285.97 3 1284.5 3C1283.03 3 1281.69 2.66667 1280.5 2C1279.31 1.33333 1277.97 1 1276.5 1C1275.03 1 1273.69 1.33333 1272.5 2C1271.31 2.66667 1269.97 3 1268.5 3C1267.03 3 1265.69 2.66667 1264.5 2C1263.31 1.33333 1261.97 1 1260.5 1C1259.03 1 1257.69 1.33333 1256.5 2C1255.31 2.66667 1253.97 3 1252.5 3C1251.03 3 1249.69 2.66667 1248.5 2C1247.31 1.33333 1245.97 1 1244.5 1C1243.03 1 1241.69 1.33333 1240.5 2C1239.31 2.66667 1237.97 3 1236.5 3C1235.03 3 1233.69 2.66667 1232.5 2C1231.31 1.33333 1229.97 1 1228.5 1C1227.03 1 1225.69 1.33333 1224.5 2C1223.31 2.66667 1221.97 3 1220.5 3C1219.03 3 1217.69 2.66667 1216.5 2C1215.31 1.33333 1213.97 1 1212.5 1C1211.03 1 1209.69 1.33333 1208.5 2C1207.31 2.66667 1205.97 3 1204.5 3C1203.03 3 1201.69 2.66667 1200.5 2C1199.31 1.33333 1197.97 1 1196.5 1C1195.03 1 1193.69 1.33333 1192.5 2C1191.31 2.66667 1189.97 3 1188.5 3C1187.03 3 1185.69 2.66667 1184.5 2C1183.31 1.33333 1181.97 1 1180.5 1C1179.03 1 1177.69 1.33333 1176.5 2C1175.31 2.66667 1173.97 3 1172.5 3C1171.03 3 1169.69 2.66667 1168.5 2C1167.31 1.33333 1165.97 1 1164.5 1C1163.03 1 1161.69 1.33333 1160.5 2C1159.31 2.66667 1157.97 3 1156.5 3C1155.03 3 1153.69 2.66667 1152.5 2C1151.31 1.33333 1149.97 1 1148.5 1C1147.03 1 1145.69 1.33333 1144.5 2C1143.31 2.66667 1141.97 3 1140.5 3C1139.03 3 1137.69 2.66667 1136.5 2C1135.31 1.33333 1133.97 1 1132.5 1C1131.03 1 1129.69 1.33333 1128.5 2C1127.31 2.66667 1125.97 3 1124.5 3C1123.03 3 1121.69 2.66667 1120.5 2C1119.31 1.33333 1117.97 1 1116.5 1C1115.03 1 1113.69 1.33333 1112.5 2C1111.31 2.66667 1109.97 3 1108.5 3C1107.03 3 1105.69 2.66667 1104.5 2C1103.31 1.33333 1101.97 1 1100.5 1C1099.03 1 1097.69 1.33333 1096.5 2C1095.31 2.66667 1093.97 3 1092.5 3C1091.03 3 1089.69 2.66667 1088.5 2C1087.31 1.33333 1085.97 1 1084.5 1C1083.03 1 1081.69 1.33333 1080.5 2C1079.31 2.66667 1077.97 3 1076.5 3C1075.03 3 1073.69 2.66667 1072.5 2C1071.31 1.33333 1069.97 1 1068.5 1C1067.03 1 1065.69 1.33333 1064.5 2C1063.31 2.66667 1061.97 3 1060.5 3C1059.03 3 1057.69 2.66667 1056.5 2C1055.31 1.33333 1053.97 1 1052.5 1C1051.03 1 1049.69 1.33333 1048.5 2C1047.31 2.66667 1045.97 3 1044.5 3C1043.03 3 1041.69 2.66667 1040.5 2C1039.31 1.33333 1037.97 1 1036.5 1C1035.03 1 1033.69 1.33333 1032.5 2C1031.31 2.66667 1029.97 3 1028.5 3C1027.03 3 1025.69 2.66667 1024.5 2C1023.31 1.33333 1021.97 1 1020.5 1C1019.03 1 1017.69 1.33333 1016.5 2C1015.31 2.66667 1013.97 3 1012.5 3C1011.03 3 1009.69 2.66667 1008.5 2C1007.31 1.33333 1005.97 1 1004.5 1C1003.03 1 1001.69 1.33333 1000.5 2C999.306 2.66667 997.973 3 996.5 3C995.027 3 993.694 2.66667 992.5 2C991.306 1.33333 989.973 1 988.5 1C987.027 1 985.694 1.33333 984.5 2C983.306 2.66667 981.973 3 980.5 3C979.027 3 977.694 2.66667 976.5 2C975.306 1.33333 973.973 1 972.5 1C971.027 1 969.694 1.33333 968.5 2C967.306 2.66667 965.973 3 964.5 3C963.027 3 961.694 2.66667 960.5 2C959.306 1.33333 957.973 1 956.5 1C955.027 1 953.694 1.33333 952.5 2C951.306 2.66667 949.973 3 948.5 3C947.027 3 945.694 2.66667 944.5 2C943.306 1.33333 941.973 1 940.5 1C939.027 1 937.694 1.33333 936.5 2C935.306 2.66667 933.973 3 932.5 3C931.027 3 929.694 2.66667 928.5 2C927.306 1.33333 925.973 1 924.5 1C923.027 1 921.694 1.33333 920.5 2C919.306 2.66667 917.973 3 916.5 3C915.027 3 913.694 2.66667 912.5 2C911.306 1.33333 909.973 1 908.5 1C907.027 1 905.694 1.33333 904.5 2C903.306 2.66667 901.973 3 900.5 3C899.027 3 897.694 2.66667 896.5 2C895.306 1.33333 893.973 1 892.5 1C891.027 1 889.694 1.33333 888.5 2C887.306 2.66667 885.973 3 884.5 3C883.027 3 881.694 2.66667 880.5 2C879.306 1.33333 877.973 1 876.5 1C875.027 1 873.694 1.33333 872.5 2C871.306 2.66667 869.973 3 868.5 3C867.027 3 865.694 2.66667 864.5 2C863.306 1.33333 861.973 1 860.5 1C859.027 1 857.694 1.33333 856.5 2C855.306 2.66667 853.973 3 852.5 3C851.027 3 849.694 2.66667 848.5 2C847.306 1.33333 845.973 1 844.5 1C843.027 1 841.694 1.33333 840.5 2C839.306 2.66667 837.973 3 836.5 3C835.027 3 833.694 2.66667 832.5 2C831.306 1.33333 829.973 1 828.5 1C827.027 1 825.694 1.33333 824.5 2C823.306 2.66667 821.973 3 820.5 3C819.027 3 817.694 2.66667 816.5 2C815.306 1.33333 813.973 1 812.5 1C811.027 1 809.694 1.33333 808.5 2C807.306 2.66667 805.973 3 804.5 3C803.027 3 801.694 2.66667 800.5 2C799.306 1.33333 797.973 1 796.5 1C795.027 1 793.694 1.33333 792.5 2C791.306 2.66667 789.973 3 788.5 3C787.027 3 785.694 2.66667 784.5 2C783.306 1.33333 781.973 1 780.5 1C779.027 1 777.694 1.33333 776.5 2C775.306 2.66667 773.973 3 772.5 3C771.027 3 769.694 2.66667 768.5 2C767.306 1.33333 765.973 1 764.5 1C763.027 1 761.694 1.33333 760.5 2C759.306 2.66667 757.973 3 756.5 3C755.027 3 753.694 2.66667 752.5 2C751.306 1.33333 749.973 1 748.5 1C747.027 1 745.694 1.33333 744.5 2C743.306 2.66667 741.973 3 740.5 3C739.027 3 737.694 2.66667 736.5 2C735.306 1.33333 733.973 1 732.5 1C731.027 1 729.694 1.33333 728.5 2C727.306 2.66667 725.973 3 724.5 3C723.027 3 721.694 2.66667 720.5 2C719.306 1.33333 717.973 1 716.5 1C715.027 1 713.694 1.33333 712.5 2C711.306 2.66667 709.973 3 708.5 3C707.027 3 705.694 2.66667 704.5 2C703.306 1.33333 701.973 1 700.5 1C699.027 1 697.694 1.33333 696.5 2C695.306 2.66667 693.973 3 692.5 3C691.027 3 689.694 2.66667 688.5 2C687.306 1.33333 685.973 1 684.5 1C683.027 1 681.694 1.33333 680.5 2C679.306 2.66667 677.973 3 676.5 3C675.027 3 673.694 2.66667 672.5 2C671.306 1.33333 669.973 1 668.5 1C667.027 1 665.694 1.33333 664.5 2C663.306 2.66667 661.973 3 660.5 3C659.027 3 657.694 2.66667 656.5 2C655.306 1.33333 653.973 1 652.5 1C651.027 1 649.694 1.33333 648.5 2C647.306 2.66667 645.973 3 644.5 3C643.027 3 641.694 2.66667 640.5 2C639.306 1.33333 637.973 1 636.5 1C635.027 1 633.694 1.33333 632.5 2C631.306 2.66667 629.973 3 628.5 3C627.027 3 625.694 2.66667 624.5 2C623.306 1.33333 621.973 1 620.5 1C619.027 1 617.694 1.33333 616.5 2C615.306 2.66667 613.973 3 612.5 3C611.027 3 609.694 2.66667 608.5 2C607.306 1.33333 605.973 1 604.5 1C603.027 1 601.694 1.33333 600.5 2C599.306 2.66667 597.973 3 596.5 3C595.027 3 593.694 2.66667 592.5 2C591.306 1.33333 589.973 1 588.5 1C587.027 1 585.694 1.33333 584.5 2C583.306 2.66667 581.973 3 580.5 3C579.027 3 577.694 2.66667 576.5 2C575.306 1.33333 573.973 1 572.5 1C571.027 1 569.694 1.33333 568.5 2C567.306 2.66667 565.973 3 564.5 3C563.027 3 561.694 2.66667 560.5 2C559.306 1.33333 557.973 1 556.5 1C555.027 1 553.694 1.33333 552.5 2C551.306 2.66667 549.973 3 548.5 3C547.027 3 545.694 2.66667 544.5 2C543.306 1.33333 541.973 1 540.5 1C539.027 1 537.694 1.33333 536.5 2C535.306 2.66667 533.973 3 532.5 3C531.027 3 529.694 2.66667 528.5 2C527.306 1.33333 525.973 1 524.5 1C523.027 1 521.694 1.33333 520.5 2C519.306 2.66667 517.973 3 516.5 3C515.027 3 513.694 2.66667 512.5 2C511.306 1.33333 509.973 1 508.5 1C507.027 1 505.694 1.33333 504.5 2C503.306 2.66667 501.973 3 500.5 3C499.027 3 497.694 2.66667 496.5 2C495.306 1.33333 493.973 1 492.5 1C491.027 1 489.694 1.33333 488.5 2C487.306 2.66667 485.973 3 484.5 3C483.027 3 481.694 2.66667 480.5 2C479.306 1.33333 477.973 1 476.5 1C475.027 1 473.694 1.33333 472.5 2C471.306 2.66667 469.973 3 468.5 3C467.027 3 465.694 2.66667 464.5 2C463.306 1.33333 461.973 1 460.5 1C459.027 1 457.694 1.33333 456.5 2C455.306 2.66667 453.973 3 452.5 3C451.027 3 449.694 2.66667 448.5 2C447.306 1.33333 445.973 1 444.5 1C443.027 1 441.694 1.33333 440.5 2C439.306 2.66667 437.973 3 436.5 3C435.027 3 433.694 2.66667 432.5 2C431.306 1.33333 429.973 1 428.5 1C427.027 1 425.694 1.33333 424.5 2C423.306 2.66667 421.973 3 420.5 3C419.027 3 417.694 2.66667 416.5 2C415.306 1.33333 413.973 1 412.5 1C411.027 1 409.694 1.33333 408.5 2C407.306 2.66667 405.973 3 404.5 3C403.027 3 401.694 2.66667 400.5 2C399.306 1.33333 397.973 1 396.5 1C395.027 1 393.694 1.33333 392.5 2C391.306 2.66667 389.973 3 388.5 3C387.027 3 385.694 2.66667 384.5 2C383.306 1.33333 381.973 1 380.5 1C379.027 1 377.694 1.33333 376.5 2C375.306 2.66667 373.973 3 372.5 3C371.027 3 369.694 2.66667 368.5 2C367.306 1.33333 365.973 1 364.5 1C363.027 1 361.694 1.33333 360.5 2C359.306 2.66667 357.973 3 356.5 3C355.027 3 353.694 2.66667 352.5 2C351.306 1.33333 349.973 1 348.5 1C347.027 1 345.694 1.33333 344.5 2C343.306 2.66667 341.973 3 340.5 3C339.027 3 337.694 2.66667 336.5 2C335.306 1.33333 333.973 1 332.5 1C331.027 1 329.694 1.33333 328.5 2C327.306 2.66667 325.973 3 324.5 3C323.027 3 321.694 2.66667 320.5 2C319.306 1.33333 317.973 1 316.5 1C315.027 1 313.694 1.33333 312.5 2C311.306 2.66667 309.973 3 308.5 3C307.027 3 305.694 2.66667 304.5 2C303.306 1.33333 301.973 1 300.5 1C299.027 1 297.694 1.33333 296.5 2C295.306 2.66667 293.973 3 292.5 3C291.027 3 289.694 2.66667 288.5 2C287.306 1.33333 285.973 1 284.5 1C283.027 1 281.694 1.33333 280.5 2C279.306 2.66667 277.973 3 276.5 3C275.027 3 273.694 2.66667 272.5 2C271.306 1.33333 269.973 1 268.5 1C267.027 1 265.694 1.33333 264.5 2C263.306 2.66667 261.973 3 260.5 3C259.027 3 257.694 2.66667 256.5 2C255.306 1.33333 253.973 1 252.5 1C251.027 1 249.694 1.33333 248.5 2C247.306 2.66667 245.973 3 244.5 3C243.027 3 241.694 2.66667 240.5 2C239.306 1.33333 237.973 1 236.5 1C235.027 1 233.694 1.33333 232.5 2C231.306 2.66667 229.973 3 228.5 3C227.027 3 225.694 2.66667 224.5 2C223.306 1.33333 221.973 1 220.5 1C219.027 1 217.694 1.33333 216.5 2C215.306 2.66667 213.973 3 212.5 3C211.027 3 209.694 2.66667 208.5 2C207.306 1.33333 205.973 1 204.5 1C203.027 1 201.694 1.33333 200.5 2C199.306 2.66667 197.973 3 196.5 3C195.027 3 193.694 2.66667 192.5 2C191.306 1.33333 189.973 1 188.5 1C187.027 1 185.694 1.33333 184.5 2C183.306 2.66667 181.973 3 180.5 3C179.027 3 177.694 2.66667 176.5 2C175.306 1.33333 173.973 1 172.5 1C171.027 1 169.694 1.33333 168.5 2C167.306 2.66667 165.973 3 164.5 3C163.027 3 161.694 2.66667 160.5 2C159.306 1.33333 157.973 1 156.5 1C155.027 1 153.694 1.33333 152.5 2C151.306 2.66667 149.973 3 148.5 3C147.027 3 145.694 2.66667 144.5 2C143.306 1.33333 141.973 1 140.5 1C139.027 1 137.694 1.33333 136.5 2C135.306 2.66667 133.973 3 132.5 3C131.027 3 129.694 2.66667 128.5 2C127.306 1.33333 125.973 1 124.5 1C123.027 1 121.694 1.33333 120.5 2C119.306 2.66667 117.973 3 116.5 3C115.027 3 113.694 2.66667 112.5 2C111.306 1.33333 109.973 1 108.5 1C107.027 1 105.694 1.33333 104.5 2C103.306 2.66667 101.973 3 100.5 3C99.0272 3 97.6939 2.66667 96.5 2C95.3061 1.33333 93.9728 1 92.5 1C91.0272 1 89.6939 1.33333 88.5 2C87.3061 2.66667 85.9728 3 84.5 3C83.0272 3 81.6939 2.66667 80.5 2C79.3061 1.33333 77.9728 1 76.5 1C75.0272 1 73.6939 1.33333 72.5 2C71.3061 2.66667 69.9728 3 68.5 3C67.0272 3 65.6939 2.66667 64.5 2C63.3061 1.33333 61.9728 1 60.5 1C59.0272 1 57.6939 1.33333 56.5 2C55.3061 2.66667 53.9728 3 52.5 3C51.0272 3 49.6939 2.66667 48.5 2C47.3061 1.33333 45.9728 1 44.5 1C43.0272 1 41.6939 1.33333 40.5 2C39.3061 2.66667 37.9728 3 36.5 3C35.0272 3 33.6939 2.66667 32.5 2C31.3061 1.33333 29.9728 1 28.5 1C27.0272 1 25.6939 1.33333 24.5 2C23.3061 2.66667 21.9728 3 20.5 3C19.0272 3 17.6939 2.66667 16.5 2C15.3061 1.33333 13.9728 1 12.5 1C11.0272 1 9.69391 1.33333 8.5 2C7.30609 2.66667 5.97276 3 4.5 3C3.02724 3 1.69391 2.66667 0.5 2" stroke="black" stroke-opacity="0.09" stroke-linecap="round" stroke-linejoin="round"/>
</svg>
