<svg width="40" height="40" viewBox="0 0 40 40" fill="none" xmlns="http://www.w3.org/2000/svg">
<path d="M18.8833 3.83797L21.9082 16.1514C22.0579 16.7739 21.2213 17.127 20.8802 16.5853L13.4252 4.74792C12.8813 3.88437 11.7418 3.62347 10.8767 4.16442C10.0577 4.67654 9.76954 5.73238 10.2148 6.58983L16.3618 18.4262C16.6633 19.0068 15.903 19.5508 15.4513 19.0777L7.22135 10.4582C6.60732 9.81511 5.59892 9.76157 4.9203 10.336C4.22797 10.9221 4.12525 11.952 4.68818 12.6634L12.6432 22.7163C13.0277 23.2022 12.4636 23.8639 11.9233 23.5606L4.08765 19.1631C3.3702 18.7604 2.46516 18.9574 1.9798 19.6219C1.45771 20.3366 1.60294 21.3379 2.30655 21.8747C8.04858 26.2554 11.6594 28.4692 19.1666 36.4321C21.1358 38.5209 24.3035 38.9318 26.7401 37.4147L32.2588 33.9785C34.4997 32.5832 35.5732 29.8921 34.9084 27.3367C34.5925 26.1222 33.5592 24.042 33.7191 22.7712C34.2425 18.6112 37.3021 13.4887 38.2003 12.0575C38.3541 11.8125 38.3762 11.5101 38.2575 11.2463C37.8691 10.3827 36.9398 9.8593 36.0558 10.1982C33.3389 11.2396 30.844 13.8907 29.1822 17.8256C28.9862 18.4778 28.2398 18.4634 27.7338 18.7403C25.83 19.7819 24.2199 22.0458 23.8379 25.3319C23.7899 25.7456 23.4156 26.042 23.0021 25.9939C22.5886 25.9458 22.2923 25.5714 22.3404 25.1577C22.7642 21.5115 24.5775 18.7749 26.9453 17.4515C27.3353 17.2336 27.5402 16.7703 27.3842 16.3514L22.2413 2.8122C21.9255 1.9639 21.0179 1.49376 20.1432 1.7254C19.2192 1.97009 18.6597 2.90827 18.8833 3.83797Z" fill="#E6CFB8"/>
</svg>
