<svg width="40" height="40" viewBox="0 0 40 40" fill="none" xmlns="http://www.w3.org/2000/svg">
<path d="M18.8834 3.83846L21.9083 16.1519C22.058 16.7744 21.2214 17.1275 20.8803 16.5858L13.4253 4.7484C12.8815 3.88485 11.742 3.62396 10.8769 4.1649C10.0578 4.67703 9.7697 5.73287 10.215 6.59032L16.3619 18.4267C16.6634 19.0073 15.9031 19.5512 15.4514 19.0782L7.22151 10.4587C6.60747 9.8156 5.59907 9.76206 4.92045 10.3365C4.22812 10.9226 4.1254 11.9525 4.68833 12.6639L12.6434 22.7167C13.0279 23.2027 12.4638 23.8643 11.9235 23.5611L4.0878 19.1636C3.37035 18.7609 2.46532 18.9579 1.97995 19.6224C1.45787 20.3371 1.60309 21.3384 2.30671 21.8752C8.04873 26.2559 11.6595 28.4697 19.1667 36.4326C21.1359 38.5214 24.3037 38.9323 26.7403 37.4152L32.259 33.979C34.4999 32.5837 35.5734 29.8926 34.9086 27.3372C34.5926 26.1227 33.5593 24.0425 33.7192 22.7717C34.2426 18.6116 37.3023 13.4892 38.2005 12.058C38.3543 11.813 38.3764 11.5106 38.2577 11.2468C37.8692 10.3832 36.9399 9.85979 36.0559 10.1986C33.339 11.2401 30.8442 13.8912 29.1824 17.8261C28.9863 18.4783 28.2399 18.4639 27.7339 18.7407C25.8302 19.7824 24.22 22.0463 23.8381 25.3324C23.79 25.7461 23.4158 26.0425 23.0023 25.9944C22.5887 25.9463 22.2925 25.5719 22.3406 25.1582C22.7643 21.512 24.5777 18.7754 26.9454 17.452C27.3355 17.234 27.5403 16.7708 27.3844 16.3519L22.2415 2.81269C21.9257 1.96439 21.018 1.49425 20.1433 1.72589C19.2193 1.97058 18.6598 2.90876 18.8834 3.83846Z" fill="#4D392E"/>
</svg>
