<svg width="40" height="40" viewBox="0 0 40 40" fill="none" xmlns="http://www.w3.org/2000/svg">
<path d="M18.8833 3.83843L21.9082 16.1519C22.0579 16.7744 21.2213 17.1274 20.8802 16.5858L13.4252 4.74838C12.8813 3.88483 11.7418 3.62393 10.8767 4.16488C10.0577 4.677 9.76954 5.73285 10.2148 6.59029L16.3618 18.4267C16.6633 19.0072 15.903 19.5512 15.4513 19.0781L7.22135 10.4587C6.60732 9.81557 5.59892 9.76203 4.9203 10.3365C4.22797 10.9226 4.12525 11.9525 4.68818 12.6639L12.6432 22.7167C13.0277 23.2027 12.4636 23.8643 11.9233 23.5611L4.08765 19.1635C3.3702 18.7609 2.46516 18.9579 1.9798 19.6224C1.45771 20.3371 1.60294 21.3383 2.30655 21.8751C8.04858 26.2559 11.6594 28.4697 19.1666 36.4326C21.1358 38.5213 24.3035 38.9323 26.7401 37.4152L32.2588 33.9789C34.4997 32.5837 35.5732 29.8926 34.9084 27.3371C34.5925 26.1227 33.5592 24.0425 33.7191 22.7716C34.2425 18.6116 37.3021 13.4892 38.2003 12.0579C38.3541 11.8129 38.3762 11.5106 38.2575 11.2468C37.8691 10.3832 36.9398 9.85977 36.0558 10.1986C33.3389 11.2401 30.844 13.8912 29.1822 17.8261C28.9862 18.4782 28.2398 18.4639 27.7338 18.7407C25.83 19.7824 24.2199 22.0463 23.8379 25.3323C23.7899 25.7461 23.4156 26.0424 23.0021 25.9943C22.5886 25.9462 22.2923 25.5719 22.3404 25.1581C22.7642 21.512 24.5775 18.7754 26.9453 17.452C27.3353 17.234 27.5402 16.7707 27.3842 16.3519L22.2413 2.81267C21.9255 1.96437 21.0179 1.49422 20.1432 1.72587C19.2192 1.97056 18.6597 2.90874 18.8833 3.83843Z" fill="#735B4B"/>
</svg>
