<svg width="40" height="40" viewBox="0 0 40 40" fill="none" xmlns="http://www.w3.org/2000/svg">
<path d="M18.8834 3.83826L21.9082 16.1517C22.0579 16.7742 21.2213 17.1273 20.8802 16.5856L13.4253 4.74821C12.8814 3.88466 11.7419 3.62376 10.8768 4.16471C10.0577 4.67683 9.76961 5.73267 10.2149 6.59012L16.3618 18.4265C16.6633 19.0071 15.903 19.551 15.4513 19.078L7.22141 10.4585C6.60738 9.8154 5.59898 9.76186 4.92036 10.3363C4.22803 10.9224 4.12531 11.9523 4.68824 12.6637L12.6433 22.7166C13.0278 23.2025 12.4637 23.8642 11.9234 23.5609L4.08771 19.1634C3.37026 18.7607 2.46522 18.9577 1.97986 19.6222C1.45777 20.3369 1.603 21.3382 2.30661 21.875C8.04864 26.2557 11.6594 28.4695 19.1667 36.4324C21.1359 38.5212 24.3036 38.9321 26.7402 37.415L32.2589 33.9788C34.4998 32.5835 35.5733 29.8924 34.9085 27.337C34.5925 26.1225 33.5592 24.0423 33.7191 22.7715C34.2425 18.6114 37.3022 13.489 38.2004 12.0578C38.3542 11.8128 38.3763 11.5104 38.2576 11.2466C37.8691 10.383 36.9398 9.85959 36.0558 10.1984C33.3389 11.2399 30.8441 13.891 29.1823 17.8259C28.9863 18.4781 28.2398 18.4637 27.7339 18.7406C25.8301 19.7822 24.2199 22.0461 23.838 25.3322C23.7899 25.7459 23.4157 26.0423 23.0022 25.9942C22.5886 25.9461 22.2924 25.5717 22.3405 25.158C22.7642 21.5118 24.5776 18.7752 26.9453 17.4518C27.3354 17.2338 27.5402 16.7706 27.3843 16.3517L22.2414 2.8125C21.9256 1.9642 21.0179 1.49405 20.1432 1.72569C19.2192 1.97039 18.6597 2.90857 18.8834 3.83826Z" fill="#997F6B"/>
</svg>
