<svg width="40" height="40" viewBox="0 0 40 40" fill="none" xmlns="http://www.w3.org/2000/svg">
<path d="M18.8834 3.83782L21.9083 16.1513C22.058 16.7738 21.2214 17.1268 20.8803 16.5851L13.4253 4.74777C12.8815 3.88422 11.742 3.62332 10.8769 4.16427C10.0578 4.67639 9.7697 5.73223 10.215 6.58968L16.3619 18.4261C16.6634 19.0066 15.9031 19.5506 15.4514 19.0775L7.22151 10.4581C6.60747 9.81496 5.59907 9.76142 4.92045 10.3359C4.22812 10.922 4.1254 11.9519 4.68833 12.6632L12.6434 22.7161C13.0279 23.2021 12.4638 23.8637 11.9235 23.5605L4.0878 19.1629C3.37035 18.7603 2.46532 18.9573 1.97995 19.6218C1.45787 20.3365 1.60309 21.3377 2.30671 21.8745C8.04873 26.2553 11.6595 28.469 19.1667 36.432C21.1359 38.5207 24.3037 38.9317 26.7403 37.4145L32.259 33.9783C34.4999 32.583 35.5734 29.892 34.9086 27.3365C34.5926 26.1221 33.5593 24.0419 33.7192 22.771C34.2426 18.611 37.3023 13.4886 38.2005 12.0573C38.3543 11.8123 38.3764 11.51 38.2577 11.2462C37.8692 10.3825 36.9399 9.85915 36.0559 10.198C33.339 11.2394 30.8442 13.8906 29.1824 17.8255C28.9863 18.4776 28.2399 18.4633 27.7339 18.7401C25.8302 19.7818 24.22 22.0457 23.8381 25.3317C23.79 25.7454 23.4158 26.0418 23.0023 25.9937C22.5887 25.9456 22.2925 25.5712 22.3406 25.1575C22.7643 21.5114 24.5777 18.7747 26.9454 17.4514C27.3355 17.2334 27.5403 16.7701 27.3844 16.3513L22.2415 2.81205C21.9257 1.96375 21.018 1.49361 20.1433 1.72525C19.2193 1.96995 18.6598 2.90812 18.8834 3.83782Z" fill="#BFA68F"/>
</svg>
