<svg width="120" height="24" viewBox="0 0 120 24" fill="none" xmlns="http://www.w3.org/2000/svg">
<path fill-rule="evenodd" clip-rule="evenodd" d="M7.7565 23.8834C8.85993 23.8834 9.79569 23.7909 10.5638 23.606L10.8173 23.544L10.9924 23.5C11.4504 23.3837 11.8373 23.2742 12.153 23.1717C12.2906 23.1291 12.3359 23.0041 12.3076 22.8736L11.5491 19.8794C11.5157 19.7475 11.3826 19.6676 11.2512 19.7006L10.7098 19.8367C10.2122 19.9455 9.69292 19.9999 9.15202 19.9999C8.15676 19.9999 7.65913 19.5212 7.65913 18.564V11.2865H10.6632C10.7837 11.2865 10.8864 11.1988 10.9058 11.0793L11.4419 7.78813C11.4639 7.65339 11.373 7.52626 11.239 7.50419C11.2259 7.50203 11.2126 7.50094 11.1993 7.50094H7.65913V4.20949C7.65913 4.07295 7.54906 3.96227 7.41327 3.96227C7.39559 3.96227 7.37795 3.96418 7.36068 3.96799L3.41451 4.83691C3.29181 4.86393 3.19622 4.96072 3.17019 5.08428L2.66122 7.50094H0.245863C0.110077 7.50094 0 7.61163 0 7.74817V11.0393C0 11.1758 0.110077 11.2865 0.245863 11.2865H2.56386V19.4451C2.56386 21.055 3.02363 22.1972 3.94316 22.8717C4.86269 23.5461 6.1338 23.8834 7.7565 23.8834ZM19.3547 23.5056V15.4311C19.3547 14.8437 19.4413 14.3378 19.6144 13.9136C19.7875 13.4893 20.0038 13.1412 20.2634 12.8693C20.5231 12.5973 20.7935 12.3961 21.0748 12.2655C21.3561 12.135 21.6157 12.0697 21.8537 12.0697C22.2215 12.0697 22.5298 12.1078 22.7786 12.184C22.9131 12.2251 23.0333 12.2678 23.1393 12.3122C23.2751 12.3638 23.4033 12.3167 23.4465 12.1784L24.6323 7.78609C24.6854 7.5937 24.6323 7.47439 24.492 7.42796C24.2975 7.36792 24.0725 7.31066 23.8172 7.25618C23.4602 7.18004 23.0545 7.14196 22.6001 7.14196C21.5832 7.14196 20.7016 7.3704 19.9551 7.82728C19.2087 8.28416 18.565 9.03475 18.0241 10.079C17.9159 9.60041 17.7753 9.17617 17.6022 8.80631C17.4291 8.43646 17.2669 8.13187 17.1154 7.89255C16.9851 7.70321 16.8595 7.5285 16.7389 7.36841C16.6366 7.22757 16.4503 7.18225 16.2934 7.22757L12.8543 8.31138C12.6548 8.37248 12.5962 8.64468 12.6932 8.77954C12.9058 9.07537 13.0899 9.39885 13.2694 9.80347L13.3183 9.91588C13.5563 10.4598 13.7672 11.1614 13.9511 12.0208C14.1351 12.8802 14.227 13.9625 14.227 15.2679V23.5056C14.227 23.6421 14.3371 23.7528 14.4729 23.7528H19.1089C19.2447 23.7528 19.3547 23.6421 19.3547 23.5056ZM28.4865 5.84154C29.4601 5.84154 30.1903 5.55871 30.6771 4.99305C31.1639 4.42738 31.4073 3.72031 31.4073 2.87182C31.4073 2.04508 31.1693 1.35976 30.6933 0.815857C30.2173 0.271952 29.525 0 28.6163 0C27.6427 0 26.907 0.28827 26.4094 0.864809C25.9118 1.44135 25.663 2.16474 25.663 3.03499C25.663 3.79646 25.9064 4.45458 26.3932 5.00936C26.88 5.56415 27.5778 5.84154 28.4865 5.84154ZM96.6115 23.9486C97.8231 23.9486 98.9266 23.7311 99.9218 23.2959C100.917 22.8608 101.772 22.2571 102.486 21.4847C103.2 20.7124 103.757 19.7986 104.157 18.7435C104.557 17.6883 104.757 16.5406 104.757 15.3005C104.757 14.0604 104.633 12.94 104.384 11.9392C104.135 10.9384 103.757 10.0845 103.248 9.37741C102.74 8.67034 102.102 8.12099 101.334 7.72938C100.565 7.33777 99.673 7.14196 98.6561 7.14196C97.2498 7.14196 96.1247 7.68587 95.2809 8.77368V1.28702C95.2809 1.19144 95.2038 1.11396 95.1088 1.11396C95.0991 1.11396 95.0894 1.11479 95.0798 1.11643L90.3576 1.92787C90.2395 1.94816 90.153 2.05109 90.153 2.17157V22.6278C90.153 22.9132 90.2952 23.0154 90.5445 23.0935L91.1194 23.2274C91.7508 23.3726 92.2046 23.4701 92.4807 23.5199L92.5061 23.5244C93.1227 23.6332 93.7934 23.7311 94.5182 23.8181C95.243 23.9051 95.9408 23.9486 96.6115 23.9486ZM40.5715 23.9486C41.7831 23.9486 42.8866 23.7311 43.8818 23.2959C44.8771 22.8608 45.7317 22.2571 46.4457 21.4847C47.1597 20.7124 47.7168 19.7986 48.1171 18.7435C48.5173 17.6883 48.7175 16.5406 48.7175 15.3005C48.7175 14.0604 48.5931 12.94 48.3442 11.9392C48.0954 10.9384 47.7168 10.0845 47.2084 9.37741C46.6999 8.67034 46.0616 8.12099 45.2936 7.72938C44.5255 7.33777 43.633 7.14196 42.6161 7.14196C41.2098 7.14196 40.0847 7.68587 39.2409 8.77368V1.28702C39.2409 1.19144 39.1638 1.11396 39.0688 1.11396C39.0591 1.11396 39.0494 1.11479 39.0398 1.11643L34.3176 1.92787C34.1995 1.94816 34.113 2.05109 34.113 2.17157V22.6278C34.113 22.9132 34.2552 23.0154 34.5045 23.0935L35.0794 23.2274C35.7108 23.3726 36.1646 23.4701 36.4407 23.5199L36.4661 23.5244C37.0827 23.6332 37.7534 23.7311 38.4782 23.8181C39.203 23.9051 39.9008 23.9486 40.5715 23.9486ZM40.6128 20.163C40.3965 20.163 40.153 20.1358 39.8826 20.0815L39.7288 20.0495L39.5918 20.0188L39.5043 19.9977C39.435 19.9804 39.3746 19.9637 39.3233 19.9478L39.2822 19.9346V15.3177C39.2822 13.6791 39.4946 12.6351 40.6939 11.3844C40.986 11.0798 41.3052 10.9275 41.6513 10.9275C42.0408 10.9275 42.3437 11.0581 42.5601 11.3192C42.7764 11.5802 42.9441 11.9283 43.0631 12.3634C43.1821 12.7986 43.2524 13.299 43.274 13.8646C43.2957 14.4303 43.3065 15.0177 43.3065 15.6269C43.3065 16.2796 43.2632 16.8833 43.1767 17.4381C43.0901 17.9929 42.9441 18.4715 42.7385 18.874C42.533 19.2765 42.2571 19.5919 41.911 19.8204C41.5648 20.0488 41.1321 20.163 40.6128 20.163ZM74.2595 23.9486C72.7666 23.9486 71.4738 23.7256 70.3812 23.2796C69.2886 22.8336 68.3853 22.1157 67.6713 21.1258C66.9573 20.1358 66.4218 18.8522 66.0648 17.2749C65.7078 15.6976 65.5293 13.7776 65.5293 11.515C65.5293 10.6665 65.5726 9.85061 65.6592 9.06739L65.6862 8.82959L65.7163 8.58199L65.7363 8.42666C65.7597 8.24997 65.7831 8.08917 65.8065 7.94425L65.8351 7.77514C65.8714 7.53882 66.0108 7.3704 66.3558 7.3704H70.6571C70.916 7.3704 71.0166 7.5381 70.9896 7.75805L70.8222 8.9454L70.8031 9.0837C70.7057 9.79078 70.6571 10.6882 70.6571 11.776C70.6571 12.7768 70.7057 13.783 70.8031 14.7947C70.9005 15.8064 71.0519 16.7201 71.2575 17.536C71.463 18.3518 71.7389 19.0154 72.085 19.5267C72.4312 20.0379 72.8639 20.2936 73.3832 20.2936C73.8159 20.2936 74.1188 20.0706 74.2919 19.6246C74.465 19.1786 74.5515 18.6401 74.5515 18.0092V7.61763C74.5515 7.48109 74.6616 7.3704 74.7974 7.3704H79.4334C79.5692 7.3704 79.6793 7.48109 79.6793 7.61763V18.1071C79.6793 19.8693 79.2411 21.2835 78.3649 22.3495C77.4886 23.4156 76.1202 23.9486 74.2595 23.9486ZM84.5595 5.84154C85.5332 5.84154 86.2634 5.55871 86.7502 4.99305C87.237 4.42738 87.4804 3.72031 87.4804 2.87182C87.4804 2.04508 87.2424 1.35976 86.7664 0.815857C86.2904 0.271952 85.5981 0 84.6893 0C83.7157 0 82.9801 0.28827 82.4825 0.864809C81.9848 1.44135 81.736 2.16474 81.736 3.03499C81.736 3.79646 81.9794 4.45458 82.4663 5.00936C82.9531 5.56415 83.6508 5.84154 84.5595 5.84154ZM82.0437 19.8041V7.61763C82.0437 7.48109 82.1538 7.3704 82.2896 7.3704H86.9256C87.0614 7.3704 87.1715 7.48109 87.1715 7.61763V23.7908C87.1715 23.9207 87.0924 23.9734 86.9619 23.9734C84.3165 23.9734 82.1118 22.4669 82.0452 19.8904L82.0437 19.8041ZM26.0037 19.8041V7.61763C26.0037 7.48109 26.1138 7.3704 26.2496 7.3704H30.8856C31.0214 7.3704 31.1315 7.48109 31.1315 7.61763V23.7908C31.1315 23.9207 31.0524 23.9734 30.9219 23.9734C28.2765 23.9734 26.0718 22.4669 26.0052 19.8904L26.0037 19.8041ZM96.6859 20.163C96.4695 20.163 96.2261 20.1358 95.9557 20.0815L95.8018 20.0495L95.6649 20.0188L95.5774 19.9977C95.5081 19.9804 95.4477 19.9637 95.3963 19.9478L95.3553 19.9346V14.9427C95.3553 13.3125 95.9154 12.2725 96.767 11.3844C97.0591 11.0798 97.3782 10.9275 97.7244 10.9275C98.1139 10.9275 98.4168 11.0581 98.6331 11.3192C98.8495 11.5802 99.0172 11.9283 99.1362 12.3634C99.2552 12.7986 99.3255 13.299 99.3471 13.8646C99.3687 14.4303 99.3796 15.0177 99.3796 15.6269C99.3796 16.2796 99.3363 16.8833 99.2498 17.4381C99.1632 17.9929 99.0172 18.4715 98.8116 18.874C98.6061 19.2765 98.3302 19.5919 97.984 19.8204C97.6379 20.0488 97.2052 20.163 96.6859 20.163ZM113.477 24C114.342 24 115.159 23.9241 115.927 23.7722C116.695 23.6204 117.371 23.4577 117.955 23.2841C118.534 23.1027 119.075 22.8985 119.579 22.6716C119.772 22.5825 119.832 22.398 119.772 22.1957L118.98 19.4403C118.924 19.2463 118.747 19.2157 118.59 19.2641L118.561 19.274C118.15 19.4201 117.731 19.5528 117.306 19.6721C116.852 19.8023 116.354 19.9216 115.813 20.0301C115.273 20.1385 114.764 20.1928 114.288 20.1928C113.466 20.1928 112.855 19.9921 112.454 19.5908C112.054 19.1894 111.778 18.6634 111.627 18.0125C112.925 17.9041 114.088 17.6763 115.116 17.3292C116.143 16.9821 117.02 16.5428 117.744 16.0113C118.469 15.4798 119.026 14.867 119.416 14.1728C119.805 13.4786 120 12.741 120 11.96C120 11.2658 119.892 10.6204 119.675 10.0239C119.459 9.42728 119.124 8.90663 118.669 8.46191C118.215 8.01719 117.631 7.67009 116.917 7.42062C116.203 7.17114 115.337 7.0464 114.321 7.0464C113.152 7.0464 112.07 7.24164 111.075 7.63213C110.08 8.02262 109.209 8.59207 108.463 9.3405C107.716 10.0889 107.132 11.0218 106.71 12.139C106.288 13.2562 106.077 14.5416 106.077 15.995C106.077 17.1882 106.212 18.2783 106.483 19.2654C106.753 20.2524 107.186 21.093 107.781 21.7872C108.376 22.4814 109.144 23.0238 110.085 23.4143C111.026 23.8048 112.157 24 113.477 24ZM111.367 14.7458C111.389 14.2889 111.443 13.8211 111.53 13.3425C111.616 12.8638 111.746 12.4287 111.919 12.0371C112.092 11.6455 112.325 11.33 112.617 11.0907C112.909 10.8514 113.26 10.7317 113.671 10.7317C114.039 10.7317 114.337 10.8568 114.564 11.107C114.791 11.3572 114.905 11.689 114.905 12.1024C114.905 12.3635 114.84 12.6463 114.71 12.9509C114.58 13.2555 114.375 13.5383 114.093 13.7994C113.812 14.0604 113.45 14.278 113.006 14.452C112.563 14.6261 112.016 14.724 111.367 14.7458ZM57.3168 24C58.1822 24 58.999 23.9241 59.767 23.7722C60.5351 23.6204 61.2112 23.4577 61.7954 23.2841C62.3744 23.1027 62.9155 22.8985 63.4188 22.6716C63.6124 22.5825 63.6724 22.398 63.6124 22.1957L62.8197 19.4403C62.7638 19.2463 62.587 19.2157 62.4302 19.2641L62.4011 19.274C61.9895 19.4201 61.5713 19.5528 61.1463 19.6721C60.692 19.8023 60.1943 19.9216 59.6534 20.0301C59.1125 20.1385 58.6041 20.1928 58.1281 20.1928C57.3059 20.1928 56.6947 19.9921 56.2945 19.5908C55.8942 19.1894 55.6183 18.6634 55.4669 18.0125C56.765 17.9041 57.928 17.6763 58.9557 17.3292C59.9834 16.9821 60.8596 16.5428 61.5844 16.0113C62.3092 15.4798 62.8664 14.867 63.2558 14.1728C63.6453 13.4786 63.84 12.741 63.84 11.96C63.84 11.2658 63.7318 10.6204 63.5155 10.0239C63.2991 9.42728 62.9637 8.90663 62.5094 8.46191C62.055 8.01719 61.4709 7.67009 60.7569 7.42062C60.0429 7.17114 59.1774 7.0464 58.1606 7.0464C56.9922 7.0464 55.9104 7.24164 54.9152 7.63213C53.9199 8.02262 53.0491 8.59207 52.3026 9.3405C51.5562 10.0889 50.972 11.0218 50.5501 12.139C50.1282 13.2562 49.9173 14.5416 49.9173 15.995C49.9173 17.1882 50.0525 18.2783 50.3229 19.2654C50.5934 20.2524 51.0261 21.093 51.6211 21.7872C52.2161 22.4814 52.9841 23.0238 53.9253 23.4143C54.8665 23.8048 55.997 24 57.3168 24ZM55.2072 14.7458C55.2289 14.2889 55.283 13.8211 55.3695 13.3425C55.4561 12.8638 55.5859 12.4287 55.759 12.0371C55.932 11.6455 56.1646 11.33 56.4567 11.0907C56.7488 10.8514 57.1004 10.7317 57.5115 10.7317C57.8793 10.7317 58.1768 10.8568 58.404 11.107C58.6311 11.3572 58.7447 11.689 58.7447 12.1024C58.7447 12.3635 58.6798 12.6463 58.55 12.9509C58.4202 13.2555 58.2146 13.5383 57.9334 13.7994C57.6521 14.0604 57.2897 14.278 56.8462 14.452C56.4026 14.6261 55.8563 14.724 55.2072 14.7458Z" fill="#005959"/>
</svg>
